<?xml version="1.0" encoding="utf-8"?>
<!-- Generator: Adobe Illustrator 16.0.0, SVG Export Plug-In . SVG Version: 6.00 Build 0)  -->
<!DOCTYPE svg PUBLIC "-//W3C//DTD SVG 1.1//EN" "http://www.w3.org/Graphics/SVG/1.1/DTD/svg11.dtd">
<svg version="1.1" id="Layer_1" xmlns="http://www.w3.org/2000/svg" xmlns:xlink="http://www.w3.org/1999/xlink" x="0px" y="0px"
	 width="1287.129px" height="336.033px" viewBox="0 0 1287.129 336.033" enable-background="new 0 0 1287.129 336.033"
	 xml:space="preserve">
<g>
	<path d="M19.313,104.057h2.479c5.473,0,8.211,11.982,8.211,35.943v8.056c0,8.161-1.239,29.076-3.718,62.746
		c0,1.344,0.206,2.842,0.62,4.493c-0.414,21.794-0.62,39.042-0.62,51.746v40.281c0,0.62,0.412,2.634,1.239,6.042
		c-0.828,5.059-2.943,7.591-6.352,7.591h-2.479c-4.236,0-6.352-6.609-6.352-19.831c0-71.782,1.239-121.204,3.718-148.266v-17.197
		c0-9.501-0.62-18.126-1.859-25.873C14.201,108.034,15.905,106.124,19.313,104.057z"/>
	<path d="M269.373,57.302h1.881c9.03,4.139,16.241,13.921,21.634,29.348c14.045,43.395,24.392,98.704,31.041,165.927
		c4.389,21.823,6.584,41.264,6.584,58.319c-1.505,3.762-5.832,5.644-12.981,5.644c-3.01-5.767-6.522-26.775-10.535-63.022
		c-1.129-3.886-3.513-19.627-7.149-47.22l-1.693-0.188c-23.83,2.257-35.744,3.762-35.744,4.515v29.348l-5.08,68.854
		c1.129,1.632,1.693,3.513,1.693,5.644c0,2.134-2.196,4.515-6.584,7.149c-8.53,0-12.792-4.074-12.792-12.229
		c3.886-52.925,5.832-84.656,5.832-95.191c-0.502-6.896-0.752-13.921-0.752-21.07c0.25-36.244,3.26-74.621,9.03-115.133
		C256.642,64.201,261.848,57.302,269.373,57.302z M272.759,76.679c-6.396,24.583-9.594,60.265-9.594,107.043
		c-0.503,0-0.752,4.83-0.752,14.486v-2.822c12.164-3.387,24.268-5.08,36.308-5.08v2.822c0-15.05-8.277-50.982-24.833-107.796
		C270.751,78.56,270.375,75.676,272.759,76.679z"/>
	<path d="M405.473,37.394c6.24,1.992,24.7,44.688,55.375,128.081h-6.574c0-3.452,13.545-44.485,40.635-123.101h9.562l3.585,6.972
		l0.199,8.764c-1.463,47.542-2.191,87.713-2.191,120.511c0,12.618,2.391,58.961,7.171,139.036l-8.565,4.183
		c-7.171,0-12.35-44.619-15.537-133.857V94.562h6.573c-18.858,58.562-30.346,89.506-34.46,92.824
		c-8.5-0.529-25.033-35.388-49.599-104.576h6.175v-1.593l11.752,231.66l-8.167,4.382c-7.438,0-11.154-2.919-11.154-8.764
		c-4.65-138.769-9.362-227.543-14.143-266.32L405.473,37.394z"/>
	<path d="M754.849,11.321h2.214c10.623,4.869,19.106,16.378,25.452,34.527c16.523,51.053,28.696,116.123,36.519,195.208
		c5.163,25.674,7.746,48.546,7.746,68.611c-1.771,4.426-6.861,6.64-15.271,6.64c-3.541-6.785-7.674-31.5-12.394-74.144
		c-1.328-4.572-4.133-23.09-8.411-55.553l-1.991-0.221c-28.036,2.656-42.052,4.427-42.052,5.312v34.526l-5.976,81.005
		c1.327,1.919,1.991,4.132,1.991,6.64c0,2.511-2.583,5.312-7.746,8.41c-10.036,0-15.05-4.793-15.05-14.386
		c4.571-62.265,6.86-99.596,6.86-111.99c-0.591-8.113-0.885-16.378-0.885-24.789c0.294-42.64,3.835-87.79,10.623-135.451
		C739.872,19.438,745.997,11.321,754.849,11.321z M758.833,34.118c-7.525,28.921-11.288,70.9-11.288,125.934
		c-0.591,0-0.885,5.682-0.885,17.042v-3.32c14.31-3.984,28.551-5.976,42.716-5.976v3.32c0-17.706-9.738-59.979-29.215-126.819
		C756.471,36.331,756.029,32.938,758.833,34.118z"/>
	<path d="M917.896,73.248h8.167c0,2.126,15.468,3.719,46.411,4.781c12.615,1.463,18.924,5.179,18.924,11.155v1.394
		c-11.821,32.269-25.964,80.741-42.428,145.41c-11.554,31.342-17.33,54.181-17.33,68.522c1.594,0.398,7.103,0.597,16.533,0.597
		c5.179,0,16.931-0.264,35.257-0.796c6.903,0.796,10.357,0.268,10.357-1.594l-4.78,2.39h2.988c2.788,0,5.509,2.061,8.167,6.175
		v3.386c0,2.789-3.188,5.244-9.562,7.37c-5.049-1.195-9.362-1.793-12.947-1.793c-7.569,0-19.854,0.265-36.851,0.797
		c-9.032-1.064-17.398-1.593-25.099-1.593c-2.391-3.85-3.585-6.505-3.585-7.968c0-13.411,6.175-39.505,18.524-78.283
		c3.188-9.029,11.951-41.164,26.293-96.409c6.375-17.793,11.021-31.936,13.944-42.428c-3.188-0.663-21.184-1.923-53.981-3.785
		c-3.72-3.984-5.577-7.37-5.577-10.159C911.323,78.296,913.513,75.906,917.896,73.248z"/>
	<path d="M1095.668,27.7h3.364c7.428,0,11.144,16.262,11.144,48.78v10.933c0,11.075-1.682,39.46-5.046,85.155
		c0,1.823,0.279,3.857,0.841,6.098c-0.562,29.577-0.841,52.985-0.841,70.226v54.667c0,0.841,0.559,3.574,1.682,8.2
		c-1.123,6.866-3.995,10.303-8.62,10.303h-3.364c-5.749,0-8.621-8.969-8.621-26.913c0-97.418,1.683-164.491,5.047-201.217V70.592
		c0-12.895-0.842-24.601-2.523-35.113C1088.73,33.097,1091.042,30.505,1095.668,27.7z"/>
	<path d="M1196.317,86.837h7.713c0,2.008,14.609,3.513,43.833,4.515c11.914,1.381,17.872,4.891,17.872,10.535v1.317
		c-11.164,30.476-24.521,76.255-40.07,137.332c-10.911,29.601-16.367,51.17-16.367,64.715c1.505,0.376,6.708,0.564,15.614,0.564
		c4.892,0,15.991-0.25,33.299-0.752c6.52,0.752,9.782,0.253,9.782-1.505l-4.515,2.257h2.821c2.634,0,5.203,1.946,7.713,5.832v3.198
		c0,2.634-3.01,4.953-9.029,6.961c-4.769-1.129-8.842-1.693-12.229-1.693c-7.148,0-18.751,0.25-34.804,0.753
		c-8.53-1.005-16.432-1.505-23.703-1.505c-2.258-3.636-3.387-6.144-3.387-7.525c0-12.666,5.832-37.311,17.496-73.934
		c3.01-8.527,11.287-38.877,24.832-91.053c6.021-16.805,10.409-30.162,13.169-40.071c-3.01-0.626-20.006-1.817-50.981-3.574
		c-3.513-3.763-5.268-6.961-5.268-9.595C1190.109,91.605,1192.178,89.348,1196.317,86.837z"/>
</g>
</svg>
